<svg width="129" height="32" viewBox="0 0 129 32" fill="none" xmlns="http://www.w3.org/2000/svg">
<g clip-path="url(#clip0_1_1518)">
<path d="M15.9581 7.50052L11.0672 0H0V24.3989H9.30331C9.30331 18.8181 15.9581 7.50052 15.9581 7.50052Z" fill="#87F24D"/>
<path d="M17.0765 24.3989H18.4063L22.6852 16.7092V24.3989H34.8262V0H23.7647L19.7418 5.97593C15.1847 11.9964 14.2221 18.1893 17.0765 24.3934V24.3989Z" fill="#87F24D"/>
<path d="M60.7497 0H56.9438C54.0338 5.47516 51.9027 13.8381 55.2746 24.3989H67.6382L60.7497 0Z" fill="#87F24D"/>
<path d="M54.7071 0H42.5159L36.1116 24.3989H45.4928C45.1701 16.8094 54.7071 0 54.7071 0Z" fill="#87F24D"/>
<path d="M93.1388 11.2174L100.083 0H87.8362L85.6272 4.16201C87.1629 6.31535 90.5125 9.71506 93.1388 11.223V11.2174Z" fill="#87F24D"/>
<path d="M79.6958 0H69.1851L76.4575 12.2189L69.0126 24.3989H81.4318L84.2529 19.1797L87.1407 24.3989H97.6681C88.5985 14.9454 84.5478 7.64519 79.7014 0H79.6958Z" fill="#87F24D"/>
<path d="M104.59 10.5219C104.545 9.43127 103.755 8.47423 102.259 8.47423C100.556 8.47423 99.7491 9.59264 99.7491 11.3398V12.9812C99.7491 14.7284 100.467 15.9525 102.275 15.9525C103.8 15.9525 104.634 15.0121 104.634 13.8604V13.7101H102.292V12.0075H106.682V13.3652C106.682 15.8746 104.935 17.6217 102.247 17.6217C99.1426 17.6217 97.6792 15.5296 97.6792 12.9311V11.4066C97.6792 8.59665 99.354 6.74377 102.203 6.74377C104.907 6.74377 106.521 8.34069 106.582 10.5107H104.595L104.59 10.5219Z" fill="#87F24D"/>
<path d="M113.381 17.427H111.289V13.66L107.706 6.96631H109.976L112.335 11.6291L114.695 6.96631H116.965L113.381 13.66V17.427Z" fill="#87F24D"/>
<path d="M128.293 17.427H126.29V11.0059L124.332 14.8897H122.479L120.52 11.0059V17.427H118.517V6.96631H120.442L123.402 12.9422L126.363 6.96631H128.288V17.4214L128.293 17.427Z" fill="#87F24D"/>
<path d="M68.9347 31.3708H69.7693L70.0698 30.0076H71.6222L71.7724 29.3288H70.2145L70.3869 28.5609H72.0952L72.2398 27.8821H69.697L68.9347 31.3708Z" fill="#87F24D"/>
<path d="M73.4473 31.3708H74.2819L75.0498 27.8821H74.2151L73.4473 31.3708Z" fill="#87F24D"/>
<path d="M78.9781 29.9853L77.9932 27.8821H77.2309L76.4686 31.3708H77.2866L77.7484 29.262L78.7333 31.3708H79.4955L80.2578 27.8821H79.4399L78.9781 29.9853Z" fill="#87F24D"/>
<path d="M83.9023 27.8821H82.4223L81.6544 31.3708H83.1623C84.086 31.3708 84.7759 30.8478 84.9595 30.002L85.1153 29.2787C85.2044 28.8669 85.1432 28.5164 84.9317 28.266C84.7203 28.0156 84.3586 27.8821 83.8968 27.8821H83.9023ZM83.6575 28.5498C83.9246 28.5498 84.1138 28.611 84.2195 28.7334C84.3197 28.8502 84.3419 29.0227 84.2974 29.2453L84.136 29.9742C84.0303 30.4472 83.6965 30.6976 83.1623 30.6976H82.6282L83.1011 28.5498H83.6575Z" fill="#87F24D"/>
<path d="M90.9855 29.3065L90.5459 27.8821H89.6445L90.4013 30.1022L90.1231 31.3708H90.9577L91.2303 30.1244L92.983 27.8821H92.0594L90.9855 29.3065Z" fill="#87F24D"/>
<path d="M96.1268 27.8153C95.1252 27.8153 94.3741 28.4107 94.1626 29.3677L94.0569 29.8574C93.9512 30.3359 94.0235 30.7365 94.2628 31.0203C94.4909 31.2929 94.8748 31.4376 95.3589 31.4376C96.3605 31.4376 97.1116 30.8422 97.3231 29.8852L97.4288 29.3955C97.5345 28.917 97.4622 28.5108 97.2229 28.2326C96.9948 27.96 96.6109 27.8209 96.1268 27.8209V27.8153ZM96.6053 29.3343L96.4829 29.8907C96.3605 30.4416 95.9988 30.7588 95.4758 30.7588C95.2421 30.7588 95.0696 30.6976 94.9639 30.5696C94.8414 30.4249 94.8081 30.2023 94.8748 29.913L94.9972 29.3566C95.1197 28.8057 95.4869 28.4886 96.0044 28.4886C96.2381 28.4886 96.4106 28.5498 96.5163 28.6778C96.6387 28.8224 96.6721 29.045 96.6053 29.3343Z" fill="#87F24D"/>
<path d="M101.496 30.1134C101.407 30.5196 101.096 30.7588 100.662 30.7588C100.45 30.7588 100.294 30.7032 100.2 30.5919C100.111 30.4862 100.083 30.3304 100.127 30.1412L100.623 27.8822H99.7936L99.3096 30.0856C99.2261 30.4751 99.2873 30.8089 99.4932 31.0482C99.7102 31.3041 100.072 31.4377 100.545 31.4377C101.457 31.4377 102.164 30.9146 102.336 30.1078L102.826 27.8766H101.991L101.502 30.1078L101.496 30.1134Z" fill="#87F24D"/>
<path d="M106.599 27.8822H104.957L104.189 31.3709H105.024L105.258 30.2914H105.903L106.309 31.3709H107.261L106.777 30.1579C107.238 29.9632 107.578 29.5681 107.678 29.0951C107.756 28.739 107.7 28.4386 107.511 28.2216C107.322 27.999 106.999 27.8766 106.587 27.8766L106.599 27.8822ZM105.642 28.5499H106.393C106.582 28.5499 106.721 28.5999 106.799 28.689C106.871 28.778 106.894 28.906 106.86 29.0673C106.782 29.4179 106.51 29.6237 106.137 29.6237H105.413L105.647 28.5443L105.642 28.5499Z" fill="#87F24D"/>
<path d="M113.904 29.7294L113.354 27.8821H112.602L111.84 31.3708H112.647L113.059 29.4901L113.387 30.5529H114.088L114.867 29.5124L114.461 31.3708H115.262L116.03 27.8821H115.268L113.904 29.7294Z" fill="#87F24D"/>
<path d="M119.196 27.8821L117.12 31.3708H117.966L118.356 30.6642H119.63L119.713 31.3708H120.542L119.997 27.8821H119.19H119.196ZM119.558 30.0076H118.723L119.418 28.7501L119.558 30.0076Z" fill="#87F24D"/>
<path d="M125.35 27.8821L124.398 28.9504L123.909 27.8821H123.046L123.825 29.5792L122.217 31.3708H123.124L124.126 30.2469L124.632 31.3708H125.517L124.699 29.6014L126.246 27.8821H125.35Z" fill="#87F24D"/>
<path d="M128.154 27.8821L127.854 29.262L127.781 30.3971H128.277L128.694 29.2843L129 27.8821H128.154Z" fill="#87F24D"/>
<path d="M127.982 30.5363C127.715 30.5363 127.498 30.7087 127.442 30.9591C127.414 31.0871 127.442 31.204 127.509 31.2819C127.576 31.3653 127.687 31.4043 127.815 31.4043C128.082 31.4043 128.299 31.2318 128.355 30.9814C128.382 30.8534 128.355 30.7366 128.288 30.6587C128.221 30.5752 128.11 30.5363 127.982 30.5363Z" fill="#87F24D"/>
</g>
<defs>
<clipPath id="clip0_1_1518">
<rect width="129" height="31.4376" fill="white"/>
</clipPath>
</defs>
</svg>
